<svg id="Flat" height="512" viewBox="0 0 512 512" width="512" xmlns="http://www.w3.org/2000/svg"><path d="m440.409 358.059c-30.37 32.71-73.56 49.51-128.35 49.94h-.059a8.006 8.006 0 0 1 -7.36-4.86c-1.07-2.51-25.78-61.99 6.43-116.05 26.51-44.5 82.99-71.09 167.89-79.05a8 8 0 0 1 8.73 7.43c.229 3.49 5.079 86.19-47.281 142.59z" fill="#88c791"/><path d="m296 456a8.006 8.006 0 0 1 -7.591-10.532l16-48c.031-.091.062-.182.1-.272 16.661-44.559 50.5-89.758 100.581-134.342 37.088-33.019 68.883-52.814 70.219-53.641a8 8 0 0 1 8.422 13.6 556.4 556.4 0 0 0 -68.224 52.187c-32.97 29.383-76.367 75.373-95.964 127.667l-15.954 47.862a8.006 8.006 0 0 1 -7.589 5.471z" fill="#6a9c72"/><path d="m391.669 294.31a8 8 0 0 1 -7.931-7.022l-6.06-49.181a8 8 0 0 1 15.881-1.957l6.06 49.181a8.008 8.008 0 0 1 -7.95 8.979z" fill="#6a9c72"/><path d="m450.532 339.861a8.01 8.01 0 0 1 -2.356-.356l-79.2-24.37a8 8 0 1 1 4.7-15.292l79.2 24.37a8 8 0 0 1 -2.35 15.648z" fill="#6a9c72"/><path d="m344.567 348.371a8 8 0 0 1 -7.524-5.285l-20.92-57.94a8 8 0 0 1 15.049-5.434l20.92 57.94a8 8 0 0 1 -7.525 10.719z" fill="#6a9c72"/><path d="m366.069 167.459c-18.82 40.73-54.99 70.38-107.51 88.12a8.077 8.077 0 0 1 -2.559.421 7.99 7.99 0 0 1 -6-2.71c-1.73-1.96-42.36-48.83-29.11-108.64 11.18-50.45 56.9-93.51 135.91-127.98a7.993 7.993 0 0 1 10.63 4.37c1.249 3.139 30.349 77.779-1.361 146.419z" fill="#88c791"/><path d="m256 312a8 8 0 0 1 -8-8v-56c0-.106 0-.213.007-.319 1.3-32.716 11.875-86.618 54.815-157.615 25.524-42.2 50.149-70.195 51.186-71.366a8 8 0 0 1 11.985 10.6c-.245.278-24.852 28.275-49.638 69.308-22.638 37.474-50.084 93.829-52.355 149.552v55.84a8 8 0 0 1 -8 8z" fill="#6a9c72"/><path d="m298.366 121.86a8 8 0 0 1 -7.08-4.263l-21.41-40.51a8 8 0 0 1 14.146-7.476l21.41 40.51a8 8 0 0 1 -7.066 11.739z" fill="#6a9c72"/><path d="m269.314 187.52a7.982 7.982 0 0 1 -6.371-3.156l-36.269-47.65a8 8 0 1 1 12.73-9.69l36.27 47.65a8 8 0 0 1 -6.36 12.846z" fill="#6a9c72"/><path d="m223.069 427.749a8.022 8.022 0 0 1 -7.069 4.251c-.16 0-.32 0-.48-.01-65.83-3.97-116.01-26.58-149.13-67.23-29.16-35.79-39.11-78.99-42.32-108.93-3.46-32.26-.13-55.98.01-56.97a8.02 8.02 0 0 1 9.08-6.78c101.08 14.85 166.08 49.54 193.21 103.12 32.349 63.879-1.831 129.769-3.301 132.549z" fill="#88c791"/><g fill="#6a9c72"><path d="m241.893 496a8 8 0 0 1 -7.419-5l-25.891-64c-.079-.2-.151-.393-.214-.594-20.2-64.057-68.246-120.374-104.993-156.337-40.007-39.154-75.493-63.195-75.846-63.434a8 8 0 1 1 8.937-13.27c1.5 1.006 37.06 25.1 78.1 65.269 68.753 67.286 97.205 125.541 108.966 162.656l25.773 63.71a8 8 0 0 1 -7.413 11z"/><path d="m135.979 300.549a8 8 0 0 1 -8-8l.02-64.879a8 8 0 0 1 8-8 8 8 0 0 1 8 8l-.02 64.88a8 8 0 0 1 -8 7.999z"/><path d="m164.979 336h-112.64a8 8 0 0 1 0-16h112.64a8 8 0 1 1 0 16z"/><path d="m186.571 368.131a8.007 8.007 0 0 1 -7.607-10.483l24.43-74.89a8 8 0 0 1 15.664 2.291v.01a8.007 8.007 0 0 1 -.394 2.481l-24.489 75.07a8.005 8.005 0 0 1 -7.604 5.521z"/><path d="m283.631 151.22a8 8 0 0 1 -.524-15.983l84.37-5.62a8 8 0 1 1 1.063 15.965l-84.37 5.62c-.181.011-.361.018-.539.018z"/></g></svg>